<?xml version="1.0" standalone="no"?>
<svg xmlns="http://www.w3.org/2000/svg" viewBox="0 0 185.69960784313724 53" width="185.69960784313724" height="53"><rect fill="none" stroke="#670213" stroke-width="3" width="182.69960784313724" height="50" x="1.5" y="1.5"></rect><g fill="#000" color="#000" transform="translate(12, 12) scale(0.5686275)"><svg width="44.0" height="51.0" x="0.0" y="0.0" viewBox="0 0 44 51"><path fill="currentColor" fill-rule="evenodd" d="M22 0L0 12.571v25.143l22 12.572 21.994-12.568.006-.01V12.571L22 0zM6.354 13.778L22 4.84l15.645 8.938-4.231 2.419L22 9.678l-11.411 6.52-4.235-2.42zm17.764 10.158v-8.21L31.3 19.83v8.208l-7.182-4.101zm-11.416-4.107l7.18-4.102v8.207l-7.18 4.103v-8.208zm11.416 19.57l11.415-6.522V19.826l4.233-2.42v17.89l-15.648 8.941v-4.838zM4.233 35.296v-17.89l4.233 2.42v13.049l11.416 6.524v4.838l-15.649-8.94zm10.583-3.63l7.182-4.104 7.183 4.104L22 35.768l-7.184-4.102z"></path></svg></g><line x1="47.52" y1="0" x2="47.52" y2="100%" stroke="#670213" stroke-width="3"></line><path fill="#000" fill-rule="nonzero" d="M1.08 16.87Q0.62 16.87 0.31 16.56Q0 16.25 0 15.79L0 15.79L0 1.10Q0 0.65 0.31 0.32Q0.62 0 1.08 0L1.08 0L10.42 0Q10.85 0 11.15 0.30Q11.45 0.60 11.45 1.03L11.45 1.03Q11.45 1.46 11.15 1.75Q10.85 2.04 10.42 2.04L10.42 2.04L2.18 2.04L2.18 7.34L9.58 7.34Q10.01 7.34 10.31 7.64Q10.61 7.94 10.61 8.38L10.61 8.38Q10.61 8.81 10.31 9.10Q10.01 9.38 9.58 9.38L9.58 9.38L2.18 9.38L2.18 15.79Q2.18 16.25 1.86 16.56Q1.54 16.87 1.08 16.87L1.08 16.87ZM15.67 16.87Q15.22 16.87 14.90 16.56Q14.59 16.25 14.59 15.79L14.59 15.79L14.59 1.10Q14.59 0.65 14.90 0.32Q15.22 0 15.67 0L15.67 0L21.14 0Q23.42 0 24.86 0.77Q26.30 1.54 26.93 2.74Q27.55 3.94 27.55 5.33L27.55 5.33Q27.55 6.72 26.93 7.92Q26.30 9.12 24.86 9.89Q23.42 10.66 21.14 10.66L21.14 10.66L16.78 10.66L16.78 15.79Q16.78 16.25 16.45 16.56Q16.13 16.87 15.67 16.87L15.67 16.87ZM16.78 8.59L20.93 8.59Q23.38 8.59 24.37 7.66Q25.37 6.72 25.37 5.33L25.37 5.33Q25.37 3.94 24.37 3.00Q23.38 2.06 20.93 2.06L20.93 2.06L16.78 2.06L16.78 8.59ZM38.04 16.75Q37.58 16.75 37.27 16.44Q36.96 16.13 36.96 15.67L36.96 15.67L36.96 1.10Q36.96 0.65 37.27 0.32Q37.58 0 38.04 0L38.04 0L47.66 0Q48.10 0 48.40 0.30Q48.70 0.60 48.70 1.03L48.70 1.03Q48.70 1.46 48.40 1.75Q48.10 2.04 47.66 2.04L47.66 2.04L39.14 2.04L39.14 7.34L46.80 7.34Q47.23 7.34 47.53 7.64Q47.83 7.94 47.83 8.38L47.83 8.38Q47.83 8.81 47.53 9.10Q47.23 9.38 46.80 9.38L46.80 9.38L39.14 9.38L39.14 14.71L47.66 14.71Q48.10 14.71 48.40 15.01Q48.70 15.31 48.70 15.74L48.70 15.74Q48.70 16.18 48.40 16.46Q48.10 16.75 47.66 16.75L47.66 16.75L38.04 16.75ZM55.80 16.87Q55.37 16.87 55.01 16.62Q54.65 16.37 54.48 15.98L54.48 15.98L50.30 6.00Q50.18 5.71 50.18 5.50L50.18 5.50Q50.18 5.04 50.50 4.72Q50.81 4.39 51.26 4.39L51.26 4.39Q51.58 4.39 51.85 4.57Q52.13 4.75 52.25 5.02L52.25 5.02L55.92 14.33L59.59 5.02Q59.71 4.75 59.99 4.57Q60.26 4.39 60.58 4.39L60.58 4.39Q61.03 4.39 61.34 4.72Q61.66 5.04 61.66 5.50L61.66 5.50Q61.66 5.71 61.54 6.00L61.54 6.00L57.36 15.98Q57.19 16.37 56.83 16.62Q56.47 16.87 56.04 16.87L56.04 16.87L55.80 16.87ZM69.48 16.99Q66.55 16.99 64.91 15.32Q63.26 13.66 63.26 10.63L63.26 10.63Q63.26 8.93 63.89 7.49Q64.51 6.05 65.81 5.16Q67.10 4.27 69 4.27L69 4.27Q70.78 4.27 72.07 5.10Q73.37 5.93 74.04 7.31Q74.71 8.69 74.71 10.32L74.71 10.32Q74.71 10.78 74.41 11.09Q74.11 11.40 73.61 11.40L73.61 11.40L65.47 11.40Q65.66 13.08 66.72 14.02Q67.78 14.95 69.67 14.95L69.67 14.95Q70.68 14.95 71.44 14.76Q72.19 14.57 72.91 14.21L72.91 14.21Q73.10 14.11 73.34 14.11L73.34 14.11Q73.73 14.11 74.02 14.38Q74.30 14.64 74.30 15.05L74.30 15.05Q74.30 15.58 73.68 15.94L73.68 15.94Q72.74 16.46 71.83 16.73Q70.92 16.99 69.48 16.99L69.48 16.99ZM65.47 9.62L72.55 9.62Q72.48 8.45 71.94 7.66Q71.40 6.86 70.61 6.49Q69.82 6.12 69 6.12L69 6.12Q68.18 6.12 67.39 6.49Q66.60 6.86 66.07 7.66Q65.54 8.45 65.47 9.62L65.47 9.62ZM78.67 16.87Q78.22 16.87 77.90 16.56Q77.59 16.25 77.59 15.79L77.59 15.79L77.59 5.50Q77.59 5.04 77.90 4.72Q78.22 4.39 78.67 4.39L78.67 4.39Q79.13 4.39 79.45 4.72Q79.78 5.04 79.78 5.50L79.78 5.50L79.78 6.48Q80.69 5.47 81.74 4.87Q82.80 4.27 84.24 4.27L84.24 4.27Q85.56 4.27 86.53 4.90Q87.50 5.52 88.02 6.60Q88.54 7.68 88.54 8.98L88.54 8.98L88.54 15.79Q88.54 16.25 88.21 16.56Q87.89 16.87 87.43 16.87L87.43 16.87Q86.98 16.87 86.66 16.56Q86.35 16.25 86.35 15.79L86.35 15.79L86.35 9.22Q86.35 6.29 83.71 6.29L83.71 6.29Q82.51 6.29 81.56 6.91Q80.62 7.54 79.78 8.59L79.78 8.59L79.78 15.79Q79.78 16.25 79.45 16.56Q79.13 16.87 78.67 16.87L78.67 16.87ZM96.14 16.99Q92.64 16.99 92.64 13.82L92.64 13.82L92.64 6.38L90.94 6.38Q90.74 6.38 90.61 6.25Q90.48 6.12 90.48 5.93L90.48 5.93Q90.48 5.69 90.70 5.52L90.70 5.52L93.96 2.33Q94.18 2.11 94.37 2.11L94.37 2.11Q94.56 2.11 94.69 2.26Q94.82 2.40 94.82 2.59L94.82 2.59L94.82 4.51L97.54 4.51Q97.94 4.51 98.21 4.78Q98.47 5.04 98.47 5.45L98.47 5.45Q98.47 5.83 98.21 6.11Q97.94 6.38 97.54 6.38L97.54 6.38L94.82 6.38L94.82 13.63Q94.82 14.57 95.27 14.82Q95.71 15.07 96.38 15.07L96.38 15.07Q96.86 15.07 97.34 14.93L97.34 14.93Q97.44 14.90 97.55 14.88Q97.66 14.86 97.82 14.86L97.82 14.86Q98.16 14.86 98.42 15.11Q98.69 15.36 98.69 15.72L98.69 15.72Q98.69 16.27 98.14 16.56L98.14 16.56Q97.20 16.99 96.14 16.99L96.14 16.99ZM105.05 16.99Q102.65 16.99 100.68 15.91L100.68 15.91Q100.27 15.62 100.27 15.12L100.27 15.12Q100.27 14.74 100.54 14.45Q100.80 14.16 101.21 14.16L101.21 14.16Q101.42 14.16 101.64 14.26L101.64 14.26Q102.41 14.59 103.18 14.78Q103.94 14.98 104.90 14.98L104.90 14.98Q107.57 14.98 107.57 13.27L107.57 13.27Q107.57 12.72 106.96 12.43Q106.34 12.14 104.95 11.78L104.95 11.78Q103.54 11.45 102.61 11.09Q101.69 10.73 101.03 10.00Q100.37 9.26 100.37 8.06L100.37 8.06Q100.37 6.38 101.58 5.33Q102.79 4.27 105.05 4.27L105.05 4.27Q106.90 4.27 108.53 4.87L108.53 4.87Q108.86 4.97 109.04 5.23Q109.22 5.50 109.22 5.78L109.22 5.78Q109.22 6.17 108.95 6.46Q108.67 6.74 108.26 6.74L108.26 6.74Q108.14 6.74 107.95 6.70L107.95 6.70Q106.56 6.26 105.22 6.26L105.22 6.26Q103.92 6.26 103.19 6.73Q102.46 7.20 102.46 7.94L102.46 7.94Q102.46 8.66 103.13 9Q103.80 9.34 105.22 9.65L105.22 9.65Q106.63 10.01 107.52 10.36Q108.41 10.70 109.04 11.45Q109.68 12.19 109.68 13.44L109.68 13.44Q109.68 14.98 108.47 15.98Q107.26 16.99 105.05 16.99L105.05 16.99Z" transform="translate(61.02 18.004)"></path></svg>